<svg xmlns="http://www.w3.org/2000/svg" xmlns:xlink="http://www.w3.org/1999/xlink" width="415.289" height="483.66" viewBox="0 0 415.289 483.66">
  <defs>
    <clipPath id="clip-path">
      <rect id="Rectangle_12" data-name="Rectangle 12" width="415.289" height="483.66" fill="none"/>
    </clipPath>
  </defs>
  <g id="Group_20" data-name="Group 20" transform="translate(7.798 -0.001)">
    <g id="Group_19" data-name="Group 19" transform="translate(-7.798 0.001)" clip-path="url(#clip-path)">
      <path id="Path_674" data-name="Path 674" d="M98.246,92.683l-.349-.417c0-.834.021-1.6.041-2.346.2-5.528.962-9.071-1.454-19.968-.942-4.192.123-6.919-1.8-16.388-.553-2.745,1.617-6.733,1.6-8.644-.122-15.1-.286-29.372-.328-36.987,0-1.085-.614-2.068-.021-2.829,2.683-3.571-12.407-3.692-18.3-3.71-9.685-.037-20.823-.083-30.078-.149A5.122,5.122,0,0,0,46.2.707C44.787.336,40.16.661,40.16.661L26.893,2.08l-.86.64c-.942.7-1.085,1.447-.45,2.133l.348.427c0,7.048-1.371,9.951,1.413,22.305.738,3.274.246,5.657.9,11.055v.018c.185,1.5.451,3.246.86,5.314.369,1.725-.368,3.942-.941,5.825-.1,11.2-.226,23.112-.349,34.047v.918c-.164,12.373-.328,23.418-.532,30.671-.143,5.62,1.208,22.287,1.208,22.287a29.449,29.449,0,0,1-.88,7.16l-1.085,7.206c-.43,1.781-2.519,3.348-5.426,4.545-2.58,1.048-6.019,2.133-6.019,2.94,0,2.05,6.347,2.411,10.912,2.411h30.9c2.478,0,4.729-.816,5-1.957.349-1.614-3.48-2.337-6.163-3.395-2.989-1.169-5.1-2.736-5.548-4.535l-1.085-7.216a29.4,29.4,0,0,1-.881-7.16s.675-16.991.675-22.593c0-6.381,1.413-10.62,1.064-18.5.185-.019.39-.037.594-.056,3.112-.306,4.34,1.289,11.363.677,2.027-.176,12.264-.76,14.68-.77,7.125-.028,13.534-.056,17.956-.065a7.059,7.059,0,0,0,2.4-.955l.84-.64c.921-.686,1.106-1.447.471-2.133M74.8,84.512c-.061,2.949-6.654,5.314-14.68,5.277-.942-.009-1.884-.009-2.805-.018-3.768-.009-6.982-.862-8.354-2.068-.021,0-.021,0-.021-.009a1.78,1.78,0,0,1-.7-1.308c.021-1.892.021-3.979.041-6.242v-.306a92.706,92.706,0,0,0-1.249-13.188c-.43-2.736.881-6.511,1.392-9.071.021-3.635.061-7.345.1-11.036.122-12.344.266-24.569.491-33.528a4.444,4.444,0,0,1,.307-1.437c.389-1,6.348-3.441,13.37-4.044,2.007-.176,4.976.51,6.389.5h.061c3.542-.018,6.429,1.02,6.408,2.319-.1,16.268-.327,52.995-.757,74.159" transform="translate(-0.191 -0.294)"/>
      <path id="Path_675" data-name="Path 675" d="M195.66,156.383c-2.848-1.168-4.879-2.736-5.3-4.535l-1.044-7.216a31.649,31.649,0,0,1-.835-7.169s.645-16.982.645-22.584c0-8.626,2.468-13.346-.095-28.445-.893-5.129.115-8.458-1.671-20.042-.512-3.348,1.5-8.227,1.481-10.564-.133-21.081-.285-40.845-.342-48.664-.019-2.263.056-3.153-.911-3.9-.778-.6-4.4-.89-4.4-.89-.911-.223-1.88-.408-2.848-.566L177.682,1.4a7.947,7.947,0,0,0-1.063-.093,120.34,120.34,0,0,0-13.1-.584c-9.891-.037-21.244-.084-30.7-.149a5.46,5.46,0,0,0-1.367-.538c-1.443-.371-13.764,2.736-13.764,2.736S115.4,1.283,112.2,26.91c-.411,3.288.266,5.657.93,11.055v.018c.19,1.5.455,3.246.873,5.314.38,1.725-.379,3.942-.968,5.825-.095,11.2-.228,23.112-.343,34.046v.918c-.171,12.373-.342,23.418-.55,30.671-.152,5.62,1.234,22.287,1.234,22.287a28.8,28.8,0,0,1-.893,7.16l-1.12,7.206c-.437,1.781-2.563,3.348-5.525,4.545C103.2,157,99.69,158.089,99.69,158.9c0,2.05,6.474,2.411,11.144,2.411H142.35c2.525,0,4.821-.816,5.088-1.957.36-1.614-3.551-2.337-6.285-3.395-3.038-1.169-5.2-2.736-5.657-4.535l-1.1-7.216a28.806,28.806,0,0,1-.893-7.16s.683-16.991.683-22.593c0-6.381,1.443-10.62,1.082-18.5.19-.019.4-.037.607-.056,3.171-.306,4.424,1.289,11.6.677,2.051-.176,12.512-.76,14.96-.77,2.2-.009,4.347-.018,6.379-.018-.115,7.716-.228,14.449-.36,19.4-.133,5.62,1.157,22.278,1.157,22.278a31.65,31.65,0,0,1-.835,7.169l-1.044,7.206c-.418,1.781-2.411,3.348-5.2,4.544-2.468,1.048-5.752,2.124-5.752,2.94,0,2.05,6.075,2.411,10.442,2.411H196.78c2.374,0,4.538-.816,4.785-1.957.342-1.614-3.322-2.337-5.9-3.395M169.211,81.509c-.076,2.949-2.528,5.547-10.71,5.51-.969-.009-14.766,2.087-15.715,2.078-3.835-.009-7.12-.862-8.525-2.068-.019,0-.019,0-.019-.009a1.773,1.773,0,0,1-.7-1.308c.02-1.892.02-3.979.039-6.242v-.306a89.529,89.529,0,0,0-1.272-13.188c-.437-2.736.892-6.511,1.424-9.071.019-3.635.057-7.345.095-11.036.132-12.344.266-24.569.512-33.528a4.217,4.217,0,0,1,.3-1.437c.4-1,6.473-3.441,13.631-4.044,2.05-.176,5.088.51,6.53.5h.057c3.608-.018,11.26,4.371,11.221,5.669-.095,16.268,3.565,47.315,3.129,68.48" transform="translate(6.057 -0.002)"/>
      <path id="Path_676" data-name="Path 676" d="M94.737,550.435c-2.321-.949-4.03-2.215-4.588-3.665a.634.634,0,0,1-.072-.246l-.18-.141-3.312-2.611a18.551,18.551,0,0,1-3.545-2.936s-6.262-7.454-8.511-9.88c-3.437-3.727-3.329-6.215-11.444-12.271-2.753-2.048-3.274-3.674-9.338-8.351C52,508.989,51.66,506.5,50.725,505.5c-3.437-3.666-6.8-7.243-9.79-10.425a25.27,25.27,0,0,0,4.157-.079c1.818-.167,11.013-.73,13.19-.738,6.387-.027,12.128-.053,16.1-.061a6.3,6.3,0,0,0,2.159-.906l.739-.606c.845-.65,1.007-1.371.431-2.022l-.306-.4c0-.791.018-1.521.036-2.224.181-5.239.864-8.6-1.313-18.925-.846-3.973.108-6.557-1.6-15.532-.5-2.6,1.44-6.382,1.422-8.192-.108-14.311-.252-27.839-.288-35.056,0-1.028-.558-1.951-.036-2.681,2.429-3.375-11.138-3.5-16.428-3.516-8.691-.035-18.7-.079-26.99-.141a4.885,4.885,0,0,0-1.223-.51,10.715,10.715,0,0,0-2.43-.167h-.018c-1.476.009-2.987.123-2.987.123L13.639,404.79l-.773.607a1.72,1.72,0,0,0-.739,1.178v.1c-.071,14.108-.468,79.533-1.061,103.021-.144,5.327,1.1,21.114,1.1,21.114a29.087,29.087,0,0,1-.81,6.795l-.99,6.83c-.4,1.688-2.267,3.173-4.93,4.307C3.113,549.732,0,550.751,0,551.525c-.018,1.943,5.74,2.286,9.878,2.286H37.913c2.23,0,4.3-.773,4.516-1.855.342-1.53-3.131-2.215-5.579-3.217-2.716-1.108-4.624-2.593-5.037-4.3l-.99-6.839a30.041,30.041,0,0,1-.791-6.795s.611-16.095.611-21.4c0-1.714.108-3.261.234-4.773,9.9,10.917,21.61,23.9,27.134,30.264,2.142,2.453,9.843,9.415,9.843,9.415a11.559,11.559,0,0,1,2.015,2.962,8.293,8.293,0,0,1-4.174,3.288c-2.124.958-4.984,1.934-4.984,2.672.018,1.846,5.362,2.145,9.176,2.127l25.911-.114c2.087-.009,3.959-.756,4.157-1.776.27-1.45-2.951-2.083-5.218-3.032M33.522,415.154a4.571,4.571,0,0,1,.27-1.362c.343-.94,5.7-3.261,12-3.833,1.818-.167,4.481.483,5.74.475h.053c3.185-.008,5.776.976,5.758,2.207-.09,15.409-.306,50.227-.684,70.286-.053,2.8-5.973,5.037-13.171,4.993-.845,0-1.691-.009-2.537-.009-4.517-.026-8.152-1.459-8.134-3.208.09-16.763.252-50.728.7-69.548" transform="translate(7.319 -223.459)"/>
      <path id="Path_677" data-name="Path 677" d="M258.1,551.816c-.256,1.038-2.5,1.786-4.967,1.786h-30.71c-4.514,0-10.822-.332-10.822-2.2,0-.748,3.41-1.735,5.972-2.7,2.9-1.088,4.948-2.526,5.4-4.167l1.064-6.6a25.094,25.094,0,0,0,.887-6.574s-1.361-15.283-1.2-20.438c.257-9.347.493-25.574.67-42.388-2.247-12.766.138-17.069.138-24.707,0-1.684.059-4.5.177-7.509v-.519c.059-6.5.119-12.281.138-16.831a21.175,21.175,0,0,0-.512-2.424l-1.084-6.617c-.433-1.65-2.542-3.087-5.5-4.159-2.681-.97-6.485-1.633-6.13-3.113.257-1.046,2.5-1.8,4.967-1.8h30.692c4.534,0,10.841.332,10.841,2.212,0,.748-3.41,1.735-5.972,2.7-2.9,1.1-4.967,2.534-5.4,4.167l-1.084,6.609a25.816,25.816,0,0,0-.868,6.574s1.341,15.275,1.2,20.429c-.257,9.347-.493,25.574-.67,42.389,2.247,12.766-.157,17.061-.157,24.707,0,1.718-.079,4.6-.178,7.688-.2,6.132-.493,13.03-.493,13.03a24.141,24.141,0,0,0,.354,4.116c.138.817.316,1.642.532,2.458l1.084,6.617c.433,1.642,2.543,3.079,5.5,4.159,2.681.969,6.485,1.633,6.13,3.113" transform="translate(4.642 -222.092)"/>
      <path id="Path_678" data-name="Path 678" d="M197.554,540.9l-.124,13.493-15.823-.269-11.513-.5c-3.8-.268-7.627-.407-11.46-.416,0,0-.443.017-1.206.043a8.094,8.094,0,0,1-3.46.7H126.329c-4.063,0-9.739-.33-9.739-2.175,0-.737,3.069-1.707,5.375-2.669,2.608-1.066,4.453-2.487,4.861-4.108l.958-6.508a26.913,26.913,0,0,0,.8-6.482s-1.224-15.07-1.082-20.149c.23-9.221.443-25.218.6-41.805-2.022-12.583.124-16.83.124-24.36,0-1.655.053-4.437.16-7.4v-.511c.053-6.413.107-12.115.124-16.6a22.553,22.553,0,0,0-.462-2.383l-.976-6.525c-.39-1.629-2.288-3.051-4.949-4.108-2.413-.954-5.836-1.6-5.517-3.068.23-1.032,2.253-1.768,4.471-1.768H148.7c3.1,0,7.149.191,8.888,1.1,2.27-.052,4.541-.165,6.812-.321l11.513-.5,15.824-.277.124,13.5c0,1.075-1.3,2.071-3.123,2.184-2.572.165-3.743-1.508-5.445-2.677a14.455,14.455,0,0,0-7.274-2.4l-11.548-.451c-3.8-.243-7.628-.364-11.46-.355,0,0-1.969.043-4.932.1l-.833,5.563a27.7,27.7,0,0,0-.781,6.482s1.207,15.062,1.082,20.14c-.212,8.657-.426,23.277-.585,38.746l12.152-.433a16.663,16.663,0,0,0,7.929-2.4c1.862-1.17,3.14-2.842,5.943-2.677,1.986.112,3.405,1.109,3.388,2.192l-.123,13.493c-.018,1.993-.674,4.757-4.24,4.749-1.42,0-3.282-1.508-5.11-2.635a17.215,17.215,0,0,0-7.894-2.392l-11.318-.451c.532,7.938-.887,11.881-.887,17.973,0,1.69-.071,4.533-.16,7.583-.178,6.04-.443,12.843-.443,12.843a26.1,26.1,0,0,0,.319,4.065q.187,1.209.479,2.418l.888,5.884c5.906.1,10.82.216,10.82.216,3.832.017,7.664-.1,11.46-.355l11.548-.451a14.456,14.456,0,0,0,7.274-2.4c1.7-1.17,2.874-2.842,5.464-2.678,1.809.113,3.1,1.109,3.1,2.193" transform="translate(5.844 -223.461)"/>
      <path id="Path_679" data-name="Path 679" d="M33.809,797.711c.082-.264.474-.615,1.112-1.014l-.426,2.052a16.758,16.758,0,0,0-.9,5.086s.049.2.1.535l-.245.056c.033-2,.065-3.753.1-5.23a5.242,5.242,0,0,1,.262-1.485" transform="translate(6.895 -441.407)"/>
      <path id="Path_680" data-name="Path 680" d="M36.122,774.092l-.033.407-3.841-.024a3.4,3.4,0,0,0-.72-.391Z" transform="translate(6.92 -428.878)"/>
      <path id="Path_681" data-name="Path 681" d="M14.905,1035.195c.017,1.126.017,2.219.017,3.266-.082-.87-.181-2.044-.294-3.33Z" transform="translate(7.134 -573.51)"/>
      <path id="Path_682" data-name="Path 682" d="M414.383,905.262c-2.452-1.006-4.2-2.355-4.559-3.9l-.9-6.212a27.26,27.26,0,0,1-.719-6.172s.555-14.62.555-19.442c0-7.426,2.126-11.49-.081-24.489-.768-4.415.1-7.282-1.438-17.255-.441-2.882,1.291-7.082,1.275-9.094-.115-18.149-.245-35.164-.294-41.9-.016-1.948.049-2.715-.784-3.361-.671-.519-3.792-.767-3.792-.767-.784-.192-1.618-.352-2.452-.487l-2.289-.352a6.821,6.821,0,0,0-.915-.08,103.584,103.584,0,0,0-11.278-.5c-8.516-.032-18.29-.072-26.429-.128a4.718,4.718,0,0,0-1.176-.463c-1.243-.319-11.85,2.356-11.85,2.356s-1.973-1.279-4.724,20.784c-.352,2.831.229,4.871.8,9.518v.016c.163,1.293.392,2.795.751,4.575.327,1.485-.327,3.394-.833,5.014-.082,9.645-.2,19.9-.294,29.311v.791c-.147,10.652-.294,20.161-.474,26.405-.13,4.839,1.062,19.187,1.062,19.187a24.821,24.821,0,0,1-.768,6.164l-.965,6.2c-.376,1.533-2.207,2.883-4.756,3.913-2.272.9-5.3,1.836-5.3,2.531,0,1.765,5.574,2.076,9.6,2.076h27.131c2.174,0,4.152-.7,4.381-1.685.31-1.39-3.057-2.012-5.411-2.922-2.615-1.006-4.478-2.356-4.871-3.9l-.948-6.212a24.825,24.825,0,0,1-.768-6.164s.588-14.628.588-19.451c0-5.493,1.242-9.142.932-15.929.163-.016.343-.032.522-.048,2.73-.263,3.809,1.11,9.987.583,1.765-.152,10.771-.655,12.879-.663,1.9-.008,3.743-.016,5.493-.016-.1,6.643-.2,12.44-.311,16.7-.115,4.839,1,19.179,1,19.179a27.272,27.272,0,0,1-.719,6.172l-.9,6.2c-.359,1.533-2.075,2.883-4.479,3.912-2.125.9-4.952,1.828-4.952,2.531,0,1.765,5.231,2.076,8.99,2.076h25.449c2.043,0,3.906-.7,4.118-1.685.294-1.389-2.859-2.012-5.083-2.922m-22.77-64.46c-.065,2.539-2.176,4.775-9.221,4.744-.833-.008-12.711,1.8-13.529,1.788-3.3-.007-6.13-.742-7.339-1.78-.016,0-.016,0-.016-.008a1.528,1.528,0,0,1-.605-1.126c.017-1.629.017-3.425.033-5.373v-.264a76.983,76.983,0,0,0-1.095-11.354c-.375-2.356.768-5.605,1.226-7.809.016-3.13.049-6.324.082-9.5.114-10.627.228-21.151.441-28.864a3.651,3.651,0,0,1,.261-1.237c.344-.863,5.574-2.963,11.736-3.481,1.765-.152,4.381.439,5.623.431h.048c3.106-.015,9.694,3.763,9.661,4.881-.082,14,3.07,40.734,2.693,58.955" transform="translate(3.121 -426.965)"/>
      <path id="Path_683" data-name="Path 683" d="M319.51,908.306c-.233.942-2.274,1.622-4.512,1.622H287.1c-4.1,0-9.83-.3-9.83-2,0-.68,3.1-1.576,5.425-2.457,2.632-.989,4.495-2.294,4.906-3.785l.967-5.995a22.79,22.79,0,0,0,.806-5.972s-1.235-13.882-1.092-18.564c.233-8.49.448-23.231.609-38.5-2.042-11.6.125-15.5.125-22.443,0-1.53.053-4.087.161-6.821v-.471c.053-5.9.108-11.156.125-15.289a19.451,19.451,0,0,0-.465-2.2l-.985-6.011c-.394-1.5-2.309-2.8-5-3.778-2.435-.881-5.89-1.483-5.568-2.827.232-.95,2.274-1.63,4.512-1.63H309.68c4.118,0,9.848.3,9.848,2.009,0,.68-3.1,1.576-5.426,2.449-2.631,1-4.512,2.3-4.906,3.786l-.984,6a23.447,23.447,0,0,0-.788,5.972s1.217,13.875,1.093,18.557c-.233,8.49-.448,23.23-.609,38.5,2.041,11.6-.143,15.5-.143,22.442,0,1.561-.072,4.18-.161,6.984-.18,5.571-.448,11.836-.448,11.836a21.934,21.934,0,0,0,.323,3.739c.125.742.286,1.491.483,2.233l.985,6.01c.394,1.491,2.309,2.8,4.995,3.778,2.435.88,5.891,1.483,5.569,2.827" transform="translate(3.811 -427.269)"/>
      <path id="Path_684" data-name="Path 684" d="M273.646,990.289s-.049.024-.147.064a.7.7,0,0,1-.082-.24Z" transform="translate(3.86 -548.568)"/>
      <path id="Path_685" data-name="Path 685" d="M30.862,773.48c-1.226-.384-5.246-.048-5.246-.048l-1.57.2,7.273.016c-.147-.056-.294-.112-.457-.168M14.943,897.152a13.623,13.623,0,0,0,.13-2.292s-.065-.543-.148-1.413c0,1.3.018,2.539.018,3.7" transform="translate(7.13 -428.441)"/>
      <path id="Path_686" data-name="Path 686" d="M75.844,907.6l-.311-.431c0-.862.034-1.661.049-2.427.18-5.733.834-9.406-1.275-20.7-.8-4.344.115-45.608-1.552-55.421-.492-2.843,1.4-6.979,1.372-8.959-.1-15.642-.229-30.429-.277-38.318,0-1.126-.524-2.14-.017-2.938,2.337-3.7-10.771-3.825-15.87-3.841-7.11-.032-15.1-.072-22.246-.128l-3.842-.024a3.364,3.364,0,0,0-.718-.391l-7.274-.016-16.967-.031c-2.319,0-4.444.575-4.69,1.373-.343,1.15,3.221,1.669,5.721,2.427,2.762.83,4.708,1.94,5.116,3.194-.182,5.749-.85,9.414,1.275,20.736.818,4.344-.1,7.17,1.536,16.983.491,2.843-1.406,6.97-1.374,8.966.1,12.488.182,43.221.247,62.847.016,1.126.016,2.22.016,3.266v.056c.082.87.147,1.413.147,1.413a13.516,13.516,0,0,1-.13,2.291,17.066,17.066,0,0,1-.605,2.795l-.931,5.126c-.376,1.277-2.289,2.4-4.985,3.226-2.436.758-5.9,1.277-5.574,2.427.245.8,2.3,1.373,4.56,1.373l28.047-.056-.064-.839c2.189.04,3.628,1.317,9.087.751,1.766-.184,10.641-.79,12.749-.806,6.179-.024,11.719-.056,15.561-.064a5.4,5.4,0,0,0,2.076-.991l.735-.663c.8-.711.966-1.5.409-2.211M55.5,899.143c-.05,3.05-5.754,5.5-12.717,5.462-.817-.008-1.634-.008-2.452-.016a13.516,13.516,0,0,1-6.031-1.27c-1.16-.607-1.831-1.389-1.831-2.236.016-1.7.016-3.9.016-6.507.115-23.395.263-79.447.573-102.738.033-2,.065-3.753.1-5.23a5.21,5.21,0,0,1,.261-1.485c.082-.263.475-.615,1.112-1.014A27,27,0,0,1,45,780.931c1.766-.183,4.317.527,5.559.519h.048c3.073-.016,5.574,1.062,5.557,2.411-.082,16.848-.294,93.348-.669,115.282" transform="translate(7.291 -428.819)"/>
      <path id="Path_687" data-name="Path 687" d="M94.873,773.447l-.867.663c-.943.721-1.1,1.5-.458,2.21l.356.442c0,7.3-1.376,10.312,1.428,23.112.943,4.344-.127,7.169,1.784,16.981.561,2.844-1.631,6.977-1.606,8.966.153,17.865.306,73.066.383,79.687,0,1.922-.077,2.671.968,3.306a7.636,7.636,0,0,0,2.219.519c1.274.164,2.548.24,2.548.24,1.019.192,2.039.355,3.109.481l2.371.288c1.3.029,2.651.038,4.358-.029,1.886-.068,4.18-.212,7.265-.519,3.135-.317,4.379,1.341,11.465.706,2.039-.182,12.366-.793,14.813-.8,7.187-.029,13.635-.057,18.1-.067a6.974,6.974,0,0,0,2.421-.99l.841-.663c.944-.711,1.122-1.5.485-2.21l-.357-.432c0-.865.026-1.663.051-2.431.2-5.728.969-9.4-1.478-20.69-.943-4.344.127-45.61-1.81-55.422-.561-2.844,1.631-6.977,1.605-8.956-.127-15.646-.28-30.435-.331-38.325,0-1.124-.612-2.134-.026-2.931,2.721-3.7-12.515-3.825-18.454-3.844-9.762-.039-21-.087-30.33-.154a5.349,5.349,0,0,0-1.376-.557c-1.428-.384-6.092-.048-6.092-.048Zm30.683,129.31c-5.087-.026-9.162-1.591-9.15-3.509.116-18.328.3-93.9.8-114.469a4.586,4.586,0,0,1,.3-1.49c.385-1.035,6.392-3.566,13.478-4.191,2.039-.183,5.021.528,6.448.519h.066c3.566-.015,6.477,1.065,6.469,2.41-.1,16.85-.347,93.349-.78,115.283-.06,3.053-6.7,5.5-14.8,5.462l-2.843-.014" transform="translate(6.14 -427.635)"/>
      <path id="Path_688" data-name="Path 688" d="M273.416,989.955l-.163-.128h.113a.408.408,0,0,0,.05.128" transform="translate(3.862 -548.41)"/>
      <path id="Path_689" data-name="Path 689" d="M186.342,984.56s-.049.024-.147.064a.7.7,0,0,1-.082-.239Z" transform="translate(4.964 -545.394)"/>
      <path id="Path_690" data-name="Path 690" d="M186.111,984.225l-.163-.128h.114a.425.425,0,0,0,.049.128" transform="translate(4.966 -545.235)"/>
      <path id="Path_691" data-name="Path 691" d="M34.685,1053.149c-1.16-.607-1.831-1.389-1.831-2.235.016-1.7.016-3.9.016-6.507l.426.1c-.049.343-.082.535-.082.535a16.687,16.687,0,0,0,.85,5.086Z" transform="translate(6.903 -578.649)"/>
      <path id="Path_692" data-name="Path 692" d="M264.532,899.319l-.069,7.889c-.018,2.387-4.337,4.3-9.524,4.216l-5.516-.088c-.173,0-.346-.008-.5-.016l-8.482-.351a20.1,20.1,0,0,0-4.128.271,49.862,49.862,0,0,1-10.218.343,10.712,10.712,0,0,1-1.456.088H193.671c-4.562,0-10.911-.3-10.911-1.988,0-.679,3.435-1.565,6.02-2.443,2.915-.982,4.978-2.283,5.447-3.769l1.075-5.956a20.734,20.734,0,0,0,.885-5.941s-1.37-13.805-1.214-18.46c.26-8.448.5-23.108.676-38.294-2.255-11.53.139-15.419.139-22.317,0-1.517.069-4.064.191-6.787v-.463c.052-5.869.121-11.1.139-15.2a16.839,16.839,0,0,0-.52-2.2l-1.093-5.973c-.434-1.493-2.568-2.794-5.551-3.761-2.706-.878-6.54-1.477-6.176-2.81.261-.943,2.516-1.621,5-1.621h30.963c4.58,0,10.929.3,10.929,2,0,.679-3.435,1.565-6.02,2.435-2.914.99-5.013,2.292-5.446,3.769l-1.093,5.965a21.222,21.222,0,0,0-.868,5.941s1.354,13.8,1.214,18.452c-.26,8.448-.5,23.107-.676,38.294,2.255,11.53-.174,15.41-.174,22.317,0,1.549-.069,4.16-.173,6.947-.191,5.541-.5,11.769-.5,11.769a19.316,19.316,0,0,0,.364,3.721,21.107,21.107,0,0,0,.538,2.22l.936,5.134c7.615-.048,17.9-.152,20.365-.3l11.136-.407a14.383,14.383,0,0,0,7.008-2.18c1.648-1.062,2.775-2.579,5.273-2.435,1.752.1,2.984,1.014,2.984,2" transform="translate(5.007 -428.66)"/>
    </g>
  </g>
</svg>
